<svg width="55" height="55" viewBox="0 0 55 55" xmlns="http://www.w3.org/2000/svg">
<path d="M39.8741 11.9735C33.0401 5.34218 21.9599 5.34218 15.1259 11.9735C13.5033 13.5372 12.214 15.4051 11.3337 17.4673C10.4535 19.5296 10 21.7447 10 23.9823C10 26.2199 10.4535 28.435 11.3337 30.4973C12.214 32.5596 13.5033 34.4275 15.1259 35.9912L27.4989 48L39.8741 35.9912C41.4967 34.4275 42.786 32.5596 43.6663 30.4973C44.5465 28.435 45 26.2199 45 23.9823C45 21.7447 44.5465 19.5296 43.6663 17.4673C42.786 15.4051 41.4967 13.5372 39.8741 11.9735ZM27.4989 29.6577C26.0376 29.6577 24.666 29.0966 23.6312 28.0781C22.6069 27.0655 22.0316 25.6934 22.0316 24.2628C22.0316 22.8323 22.6069 21.4602 23.6312 20.4476C24.6638 19.4291 26.0376 18.868 27.4989 18.868C28.9602 18.868 30.334 19.4291 31.3666 20.4476C32.3909 21.4602 32.9662 22.8323 32.9662 24.2628C32.9662 25.6934 32.3909 27.0655 31.3666 28.0781C30.334 29.0966 28.9602 29.6577 27.4989 29.6577Z"/>
</svg>
